<?xml version="1.0" encoding="UTF-8" standalone="no"?>
<svg id="svg4549" xmlns:rdf="http://www.w3.org/1999/02/22-rdf-syntax-ns#" xmlns="http://www.w3.org/2000/svg" height="1526" viewBox="0 0 1821 1526" width="1821" version="1.1" xmlns:cc="http://creativecommons.org/ns#" xmlns:dc="http://purl.org/dc/elements/1.1/">
<path id="path4559" d="m1394 1522.4c-41.274-12.258-239.17-67.807-270-75.791-117.12-30.324-223.91-41.548-262.24-27.56-15.324 5.5926-26.715 12.908-43.765 28.106-35.601 31.734-56.855 37.753-95.332 26.996l-6.8378-1.9115-21.024 8.7702-21.024 8.7702-23.639-16.508c-13.001-9.0797-29.826-20.807-37.389-26.06-16.05-11.149-15.303-9.7164-7.5583-14.511 7.7799-4.8162 4.7366-6.0834 36.836 15.338 32.475 21.672 25.167 20.706 50.142 6.6303 24.59-13.858 19.188-13.466 43.767-3.1755l20.238 8.4735 41.875-32.224c23.031-17.723 41.78-32.548 41.663-32.946-0.11667-0.3973-6.6246-7.9022-14.462-16.678l-14.25-15.955v-19.572-19.572h-9.859-9.859l1.805-7.75c9.7811-41.997-2.2261-61.507-39.337-63.919l-9.75-0.6335v-8.4574-8.4573l18.5 0.7301c15.369 0.6066 18.496 0.498 18.479-0.6416-0.0117-0.7544 3.8841-76.747 8.6572-168.87l8.6784-167.5-3.3515-31.755c-4.03-38.28-1.12-33.56-22.04-35.96-27.39-3.15-72.37-9.19-152.43-20.5-79-11.15-109.81-15.13-142.5-18.42-55.6-5.58-49.14-5.39-193.75-5.79l-135.25-0.37 0.009 157.3c0.0121 200.41 1.3493 233.45 11.011 272.04 11.211 44.78 22.658 55.65 54.056 51.324 40.103-5.5243 74.899-0.8598 99.041 13.276l6.6171 3.8746 9.3829-1.3362c5.1606-0.735 10.584-1.5523 12.051-1.8163 2.2227-0.3998 5.5753 1.7398 20.076 12.812 9.5744 7.3107 17.954 13.63 18.62 14.042 0.66679 0.4121 5.5824-0.3905 10.924-1.7835 45.004-11.737 74.693-9.8261 114.31 7.3582l9.1767 3.9802 27.61-15.582 27.61-15.582 6 1.1508c54.635 10.479 70.244 6.6322 89.024-21.939 11.083-16.86 18.371-23.03 27.186-23.014 3.9186 0.01 27.981 4.3508 28.835 5.2054 2.3597 2.3598-14.038 13.731-27.941 19.376-15.937 6.471-21.896 12.323-23.432 23.012l-0.67286 4.681-29 18.828c-15.95 10.355-29.388 18.971-29.863 19.147-0.4744 0.1753-0.11767 6.0952 0.79273 13.155 1.8786 14.568 1.7124 15.672-1.3042 8.6598-4.6411-10.788-5.4398-16.418-4.7279-33.321l0.66327-15.75h-19.281-19.281l-25.214 19.996-25.214 19.996h-8.9769-8.9769l-18.023-15.5c-9.9127-8.525-18.383-15.5-18.822-15.5-0.43968 0-20.104 8.1017-43.699 18.004-23.595 9.9021-43.076 17.827-43.292 17.611-0.21583-0.2158-1.2437-4.5475-2.2842-9.626-5.9377-28.982-23.223-42.518-47.405-37.123l-8.9074 1.9871-17.593-8.766-17.593-8.766-11.206 3.4889-11.206 3.489-11.45-9.661-11.45-9.661-16.037 11.012c-8.8205 6.0563-16.462 11.012-16.981 11.012-0.5192 0-14.78-16.912-31.691-37.583-35.593-43.507-30.44-39.295-42.988-35.134l-9.9903 3.3132-5.2493-1.7299c-34.313-11.308-66.064 4.6585-81.89 41.179-4.4173 10.193-5.2817 8.2464 11.495 25.891l14.356 15.098-3.5365 4.2321c-1.955 2.5-11.413 13.2-21.027 23.9l-17.481 19.5 14.148 14.25 14.148 14.25h10.594 10.594l13.823 16.5c15.377 18.355 15.08 18.177 24.392 14.639 7.2209-2.7437 18.05-10.372 27.939-19.681l8.732-8.22 22.476 3.3568c12.362 1.8462 23.151 3.3557 23.976 3.3542 0.825 0 10.275-8.0365 21-17.856l19.5-17.853 0.60015 9.6302c1.972 31.642 21.744 47.594 46.892 37.83l11.492-4.4617 12.508 8.5508c6.8794 4.7029 16.654 11.41 21.721 14.904l9.213 6.3531 21.055-10.537 21.055-10.537 3.1369 3.5727c10.374 11.816 36.838 15.193 69.757 8.9022 4.0867-0.781 7.5823-1.268 7.768-1.0823 0.18572 0.1857-7.1508 5.207-16.303 11.158l-16.641 10.821-22.127-5.2547-22.127-5.2546-20.401 8.5826c-24.593 10.346-17.927 10.988-45.53-4.3786l-23.283-12.961-13.132 3.4932-13.132 3.4932-25.47-10.532c-28.694-11.865-26.525-11.462-51.158-9.5099-27.87 2.2086-53.163 8.1251-73.233 17.13l-6.4804 2.9075-11.091-3.691c-54.105-18-84.827-40.3-89.568-64.9l-1.1558-6 9.6505-28 9.6505-28-1.6854-4.5c-11.186-29.867-2.4545-60.115 23.87-82.688 15.798-13.547 30.039-16.745 60.919-13.682 19.631 1.9476 17.426 2.914 18.668-8.1816 3.34-29.838 13.026-236.94 15.678-335.2l0.68143-25.254-5.3575-20.861-5.3575-20.861-16.041-0.0441c-44.733-0.13-68.194-12.66-72.676-38.83-2.388-13.94 7.524-33.78 82.626-165.4 123.7-216.8 213.95-363.85 224.82-366.31 1.2049-0.27323 26.609-5.1283 56.453-10.789l54.262-10.292 13.839 1.2382c7.6117 0.68101 20.544 2.294 28.738 3.5843 8.1941 1.2904 15.182 2.0586 15.528 1.7073 0.8-0.82 16.87-42.73 16.87-44.01 0-0.52843-11.767-4.883-26.149-9.6768l-26.149-8.716 0.64011-13.117c3.71-76.066 42.91-112.41 131.66-122.08 110.09-11.994 211.79-4.2993 337.41 25.527 29.421 6.9855 25.571 4.3999 24.469 16.433-2.7673 30.224-10.862 63.084-21.774 88.392l-3.6185 8.3919-22.186 7.6361c-12.202 4.1998-22.497 7.947-22.877 8.3269-3.7438 3.7438-4.0472 53.489-0.4606 75.503 0.0224 0.1375 11.403 0.25463 25.291 0.26029 56.409 0.023 134.23 5.0895 224.54 14.619l6.2909 0.6638 15.765 17.603c73.203 81.737 133.32 160.7 248.63 326.6 138.58 199.38 133.93 192.53 131.87 193.99-1.0174 0.72233-16.403 12.521-34.189 26.219l-32.339 24.905-15.372-2.51c-18.758-3.063-14.205-13.746-30.497 71.551l-14 72.85-0.019 90.25c-0.01 49.638 0.1833 90.25 0.43 90.25 0.2466 0 16.875-9 36.952-20 39.068-21.405 37.706-20.892 49.099-18.489 18.346 3.8689 26.848 11.589 38.389 34.857 9.8504 19.861 14.658 27.302 22.934 35.496l6.4277 6.3643-5.1494 29.952-5.1494 29.952 6.0022 7.9655c38.127 50.598 11.917 126.72-44.954 130.57l-8.5 0.5747-17.243-6.576c-9.4834-3.6169-17.834-6.7091-18.556-6.8717-2.7519-0.6192-20.226 11.466-17.85 12.345 4.1558 1.5374 35.862 8.0433 58.148 11.932 14.915 2.6022 19.972 3.7591 15 3.4317-4.125-0.2717-17.175-1.1549-29-1.9626-84.407-5.7653-124.94-4.548-167 5.0154-20.05 4.5587-133.04 36.573-132.45 37.528 2.3316 3.7725 57.631 23.07 114.45 39.938 28.12 8.3484 84.366 30.992 76.502 30.798-0.55-0.014-6.175-1.5616-12.5-3.44zm-164.43-103.81c58.991-14.365 116.18-27.737 150.43-35.178 14.575-3.1656 26.624-5.8353 26.774-5.9325 0.525-0.3384-3.0532-40.965-3.6618-41.576-2.1853-2.1914-77.501 6.5672-139.61 16.236-25.694 3.9997-26.141 4.1106-38 9.4402l-12 5.3929-16.758 0.8646c-19.375 0.9996-17.524 0.1855-18.863 8.2986-1.4473 8.7758 2.3779 53.882 4.5695 53.882 0.1027 0 21.306-5.1429 47.119-11.429zm-71.6 3.9c0-0.2672 1.1501-12.927 2.5558-28.133s2.3371-28.217 2.0698-28.914c-1.5591-4.0631-149.03-29.788-191.63-33.427-8.5277-0.7285-15.708-2.1883-27.78-5.6478-8.954-2.5659-16.439-4.4913-16.633-4.2787-0.19396 0.2126-1.5049 11.862-2.9132 25.887l-2.5606 25.5 3.177 3.2887c8.8147 9.1247 17.38 10.584 45.21 7.7025 28.38-2.9386 48.181 0.9348 163 31.886 25.61 6.9034 25.5 6.877 25.5 6.137zm300.31-26.423c1.7643-1.7643-2.66-5.471-11.458-9.5995-8.8518-4.1539-8.9489-4.1314-10.842 2.5085-2.0031 7.0247-1.56 7.9863 3.7408 8.1183 2.6125 0.065 6.1 0.4245 7.75 0.7987 3.3785 0.7662 9.2003-0.2173 10.809-1.826zm-582.71-14.244 15.211-4.1535 0.64844-10.096c1.929-30.035 5.695-58.208 14.182-106.1 13.404-75.629 14.284-84.559 15.379-156 3.5684-232.92 16.989-294.07 76.684-349.42 55.418-51.38 166.98-71.006 215.65-37.938 61.166 41.556 102.04 173.49 108.74 351.06 1.9919 52.724-1.8147 101.53-15.492 198.64-0.9484 6.7333-1.007 9.4368-0.2102 9.6949 14.227 4.6073 41.692 13.873 57.516 19.403l20.411 7.1335 9.5893-0.2842 9.5893-0.2843 0.2267-37c1.035-168.91 2.4404-309.68 3.2747-328 2.0643-45.325 5.1157-78.598 9.6049-104.73l2.5308-14.734-15.258-22.266c-26.133-38.137-60.158-86.401-116.96-165.9-97.45-136.4-130.18-184.19-166.5-243.1-6.0103-9.75-11.178-17.737-11.485-17.75-0.3064-0.0125-9.4767 23.04-20.379 51.227-21.606 55.864-52.76 135.53-70.877 181.25-54.114 136.56-96.262 217.35-118.84 227.81-5.3432 2.4746-52.557 1.6838-70.633-1.1831-13.198-2.0932-16.685 13.606-18.188 81.874-1.5755 71.596-3.3642 106.95-10.524 208-2.4355 34.375-5.1093 74.2-5.9418 88.5-0.83255 14.3-1.7352 29.158-2.0059 33.019l-0.4922 7.0189 4.4213 2.3455c16.037 8.5078 22.666 28.045 16.626 49.008l-1.2651 4.391 4.9372 5.109c9.3426 9.6675 14.076 18.332 22.734 41.609 8.9705 24.12 15.693 36 20.371 36 0.82301 0 8.3411-1.869 16.707-4.1534zm666.4 0.012c3.5746-2.2675 13.375-9.2941 21.778-15.615 17.269-12.989 16.814-12.043 10.049-20.911-7.4783-9.8032-6.9162-14.658 3.3032-28.53 10.069-13.668 5.6589-25.28-16.792-44.209-12.652-10.667-12.44-9.5908-3.7127-18.896 22.979-24.501 20.252-39.682-11.982-66.698-14.728-12.344-13.821-10.145-7.5829-18.386l5.0599-6.6841-2.0818-3.3684c-9.3062-15.058-29.691-21.028-51.543-15.095-23.23 6.3065-53.153 18.61-59.358 24.406l-3.2229 3.0106 0.3386 72.809c0.3838 82.531-0.6303 71.493 9.7448 106.07 6.2803 20.93 6.2389 20.838 9.6726 21.524 1.5635 0.3127 5.5133 2.1767 8.7774 4.1423 9.4504 5.6907 12.426 4.7926 25.139-7.5874l8.0867-7.8749 12.413 12.923 12.413 12.923 11.5 0.086 11.5 0.086 6.4993-4.1227zm-287.63-39.196c4.8776-1.4972 14.553-5.0224 21.5-7.8337 29.894-12.097 40.414-15.416 52.842-16.671l6.5153-0.658-19.863-10.185c-32.144-16.483-55.844-26.032-68.944-27.779-8.4865-1.1316-30.149 2.4868-69.418 11.595-44.604 10.346-67.016 14.284-89.58 15.74-12.014 0.7753-13.766 1.1496-21.5 4.5935-4.6309 2.0622-10.107 4.2442-12.17 4.8489-2.0625 0.6047-3.75 1.3477-3.75 1.651 0 1.3175 99.66 22.381 123 25.997 20.8 3.222 69.155 2.4501 81.368-1.299zm-285.42-41.5c14.8-10.8 22.25-61.1 19.89-134.2-8.23-255.9 22.03-372.66 101.63-392.12 72.059-17.618 124.12 50.462 148 193.53 9.6183 57.637 12.588 114.92 8.0659 155.59-5.4937 49.421-13.21 129.52-12.552 130.29 0.6422 0.7523 39.205 12.826 39.623 12.406 1.4006-1.4102 13.39-64.366 16.797-88.199 17.378-121.57-5.3696-300.97-48.102-379.37-28.737-52.718-63.287-73.773-115.01-70.084-105.72 7.5409-157.33 77.972-173.77 237.17-3.1485 30.485-13.438 212.13-12.42 219.25 0.92941 6.4982 0.88216 58.096-0.0774 84.535l-0.74402 20.5 4.5938 4.2806c9.3962 8.7555 17.818 11.003 24.07 6.4235zm122.02-14.8l5.5-3.1032 28-1.1423c74.747-3.0494 89.971-12.525 99.145-61.706 3.6647-19.646 2.2897-157.99-2.176-218.94-9.52-129.94-51.024-201.23-120.01-206.12-22.366-1.5864-57.462 25.575-57.462 44.471 0 2.5723-0.01 2.5705-2.8624-0.85081l-2.8624-3.4287-1.5009 2.9665c-3.5402 6.9971-14.911 45.803-26.07 88.966l-6.2044 24-0.2618 169-0.2618 169 40.762-0.0007 40.762-0.0007 5.5-3.1032zm-35.649-139.82c-18.853-3.5594-32.989-18.189-39.377-40.753l-2.0727-7.321 12.3-11.89c21.922-21.193 22.458-21.449 37.931-18.17 21.846 4.6306 31.968 18.546 31.942 43.918-0.028 27.783-13.745 39.309-40.722 34.216zm11.334-13.641c1.5483-0.5864 4.5026-2.819 6.5651-4.9614l3.75-3.8951v-14.039c0-9.4385-0.3561-14.039-1.0866-14.039-0.5977 0-3.5554-2.5286-6.5727-5.6191l-5.486-5.6192-6.5774 2.7954c-21.377 9.0854-25.924 15.642-18.064 26.044 11.823 15.644 20.705 21.895 27.471 19.333zm411.8-328.54c21.844-5.5593 51.245-13.87 52.102-14.727 0.3859-0.38594-384.11-498.44-387.66-502.15-0.5209-0.54468-1.1487-0.13852-1.5455 1-3.8634 11.084-14.936 37.766-20.328 48.984l-6.7611 14.067 46.164 64.933c65.61 92.285 212.96 299.84 232.53 327.53 20.926 29.614 37.475 51.177 46.151 60.133l6.7927 7.0118 5.7783-0.71725c3.178-0.39448 15.228-3.1223 26.778-6.0619zm-619.78 0.008c26.78-2.8681 27.234-3.0258 34.368-11.947 21.796-27.257 50.214-88.063 109.59-234.47 62.314-153.67 101.53-244 119.71-275.76l3.556-6.2106-3.2186-0.52163c-1.7702-0.28689-10.423-1.1994-19.228-2.0277-8.8051-0.82834-30.18-2.8406-47.5-4.4718-92.706-8.7308-167.75-14.182-215.68-15.666l-22.188-0.68717-5.5543 2.7174c-6.9641 3.4072-16.359 10.135-35.253 25.243-40.44 32.36-43.44 33.2-112.3 31.43-114.58-2.93-161-11.62-161-30.14 0-5.8537 0.87993-8.4586 8.1832-24.225 3.3794-7.2955 6.1586-14.819 6.4815-17.545l0.56525-4.7727-9.365-1.7289c-45.01-8.31-117.75-9.09-135.86-1.45-14.75 6.22-59.31 72.13-133.71 197.77-68.93 116.39-174.8 304.93-172.49 307.18 0.38614 0.37612 12.463 5.2292 26.837 10.785l26.135 10.101 94.365-1.6375c101.54-1.7621 154.24-1.4726 184.37 1.0129 53.214 4.3906 110.31 11.642 181.5 23.053 148.34 23.776 220.99 30.048 277.72 23.973zm-148.96-525.72c0.65882-6.1875 2.7744-20.025 4.7012-30.75 6.5466-36.439 7.964-60.508 5.4891-93.21-0.94158-12.441-3.3454-30.515-4.1679-31.337-1.0902-1.0902-56.764-12.483-58.934-12.06-1.4562 0.28393-6.6312 2.2954-11.5 4.47-8.122 3.6276-10.544 4.1721-29.352 6.5991-69.321 8.945-63.221 6.4732-61.859 25.066 1.8092 24.691-1.156 65.948-8.2275 114.47-1.6431 11.275-3.2261 21.288-3.5179 22.25-0.7244 2.39 20.093 2.4197 66.104 0.0944l34-1.7183 31.5 3.561c17.325 1.9586 32.19 3.6177 33.033 3.687 1.2302 0.10108 1.7697-2.0967 2.7309-11.124zm45.869-12.159c44.538-39.658 52.36-42.618 99.128-37.522 18.687 2.0364 20.08-2.9839 20.201-72.82l0.04-21.25h-7.7671c-21.478 0-56.065-3.1067-86.233-7.7456-28.3-4.3518-47.603-5.4127-46.674-2.5652 12.144 37.208 12.957 94.285 2.1065 147.81-1.34 6.6-2.43 12.16-2.43 12.37 0 0.78616 4.343-2.8835 21.633-18.279zm-222.31-145.98c14.3-10.73 40.48-17.43 78.68-20.11 12.375-0.8702 26.55-2.048 31.5-2.6174l9-1.0352 6.25-6.1431 6.25-6.147v-23.779-23.779l-14.75 0.018c-8.5761 0.01071-18.295 0.64518-23.219 1.5158-4.6577 0.82357-29.319 4.4037-54.804 7.9558-25.484 3.5521-46.747 6.7131-47.251 7.0244-1.8407 1.1376-13.058 39.174-15.937 54.04-2.2715 11.729-3.3568 10.1 8.627 12.946 12.415 2.9484 11.874 2.9446 15.651 0.10913zm387.2-2.1839c8.1813-3.8823 19.116-33.563 21.092-57.248l0.66949-8.0278-3.8875-1.0259c-31.84-8.406-83.93-13.307-155.89-14.672-17.6-0.33394-36.95-1.2382-43-2.0095-6.05-0.77127-15.95-2.0467-22-2.8343-6.05-0.78761-14.495-1.7365-18.766-2.1087l-7.7656-0.67668-2.4669 5.3884c-3.7444 8.1789-4.8785 18.65-3.1282 28.882 0.79061 4.6219 1.9966 12.586 2.6799 17.697 1.4625 10.94-0.0849 9.7056 18.946 15.116 42.771 12.159 99.626 19.795 164 22.027 37.97 1.3162 45.835 1.2352 49.514-0.51057zm-390.02 1342.6c-3.3-1.019-11.85-3.8706-19-6.3368-7.15-2.4663-15.589-4.8001-18.753-5.1864-10.289-1.2561-34.799-24.752-30.405-29.146 1.1275-1.1275 69.417 20.472 76.955 24.34 3.0113 1.5453 17.497-6.2069 32.332-17.303l5.7909-4.3314 2.6182 4.235c1.44 2.3292 3.8306 6.317 5.3124 8.8616l2.6942 4.6266-10.857 7.079c-23.085 15.053-32.224 17.629-46.689 13.162zm1267-0.6677c-24.973-7.593-78.354-20.11-116.03-27.207-26.229-4.9408-24.306-5.098 7.2749-0.5949 52.842 7.5349 116.91 19.896 130.26 25.132 8.1469 3.1954-11.676 5.6573-21.5 2.6702zm-141.75-31.989c0.6875-0.2774 1.8125-0.2774 2.5 0s0.125 0.5044-1.25 0.5044-1.9375-0.227-1.25-0.5044zm-37-5c0.6875-0.2774 1.8125-0.2774 2.5 0s0.125 0.5044-1.25 0.5044-1.9375-0.227-1.25-0.5044zm-8.019-0.9936c0.677-0.274 2.027-0.2906 3-0.037 0.9729 0.2536 0.419 0.4777-1.231 0.4981-1.65 0.02-2.4461-0.1871-1.769-0.461zm-8-1c0.677-0.274 2.027-0.2906 3-0.037 0.9729 0.2536 0.419 0.4777-1.231 0.4981-1.65 0.02-2.4461-0.1871-1.769-0.461zm-8-1c0.677-0.274 2.027-0.2906 3-0.037 0.9729 0.2536 0.419 0.4777-1.231 0.4981-1.65 0.02-2.4461-0.1871-1.769-0.461zm-8-1c0.677-0.274 2.027-0.2906 3-0.037 0.9729 0.2536 0.419 0.4777-1.231 0.4981-1.65 0.02-2.4461-0.1871-1.769-0.461zm-33-4c0.677-0.274 2.027-0.2906 3-0.037 0.9729 0.2536 0.419 0.4777-1.231 0.4981-1.65 0.02-2.4461-0.1871-1.769-0.461zm-1019.3-178.9c-198.58-9.3-311.5-36-311.5-73.6 0-9.8318 16.275-46.671 25.706-58.186 2.6368-3.2195 5.5422-6.8195 6.4565-8 2.1052-2.7182 3.6024-24.555 4.398-64.146 0.64409-32.053 2.1027-50.699 7.0011-89.5 3.3978-26.914 10.944-82.353 12.074-88.704 0.81354-4.5722 7.5606-6.8031 19.865-6.5681 33.944 0.64821 301.69 14.431 306.95 15.801 37.376 9.7352 49.538 55.453 39.895 149.97-2.9203 28.625-3.9382 82.779-1.7282 91.948l0.9515 3.9476 13.466 4.7111c7.4064 2.5911 19.474 6.4397 26.818 8.5525l13.351 3.8413-0.65448 7.5c-7.8414 89.858-37.17 108.27-163.05 102.38zm46-17.379c48.158-1.4828 62.421-4.5551 76.145-16.402 18.422-15.902 25.723-59.992 11.039-66.659-8.6057-3.9071-17.201-2.2336-19.133 3.7253-0.7166 2.2099-5.9697 1.0206-9.1547-2.0727l-3.71-3.6h-142.59c-154.89-0.011-151.1 0.1063-194.1-6.0174-15.125-2.1542-31.775-4.0418-37-4.1945l-9.5-0.2778-3.2007 6.5c-19.359 39.314-3.5981 50.376 95.368 66.935 72.498 12.13 112.27 15.562 146.83 12.669 10.45-0.8747 22.291-1.8596 26.313-2.1886 7.3247-0.5991 15.187 2.296 15.187 5.5922 0 0.5388 1.8675 2.3324 4.15 3.9858 4.8095 3.484 1.0906 3.3115 43.35 2.0103zm37.207-106.86c0.70123-0.9051 2.5165-4.1207 4.034-7.1457l2.759-5.5 0.27146-109.27 0.27145-109.27-2.2714 0.51634c-1.2493 0.28399-4.2965 0.97636-6.7715 1.5386-11.074 2.5156-31.568 2.3164-52.5-0.51039-18.14-2.4497-24.361-2.7778-66.885-3.5274-62.894-1.1087-95.06-2.4017-190.22-7.6464-13.09-0.72146-11.794-1.9621-14.401 13.796-4.5103 27.265-6.864 35.642-11.09 39.466-1.84 1.66-1.9 4.42-1.9 90.6v88.845h13.84 13.84l0.64732-35.25c1.7626-95.984 11.419-141.17 31.346-146.67 3.7641-1.0393 28.258-0.23338 58.827 1.9356 31.236 2.2163 55.399 2.8623 73.5 1.965 71.002-3.5198 104.47-0.7403 110.6 9.1861 1.7514 2.8339-0.70983 22.226-6.2614 49.333l-2.6624 13-0.39926 56.705-0.39925 56.705 5.3097 1.4976c8.1149 2.2887 10.237 2.448 25.276 1.8965 11.367-0.4167 14.203-0.8183 15.241-2.1578zm-212.24-2.9c10.611-30.344 16.638-58.996 13.145-62.49-2.1395-2.1395-52.213-9.979-78.868-12.348l-7.75-0.6887v37.006 37.006l5.75 1.5866c10.783 2.9753 24.692 4.2557 48.906 4.5023l17.156 0.1747 1.661-4.75zm37 2.5c1.8392-8.0936 6.5204-62.172 6.5244-75.371l0.002-8.1208 7.1411-0.7036c3.9276-0.3871 27.103-0.378 51.5 0.02 24.397 0.3981 44.359 0.351 44.359-0.1046 0-0.4555-0.5404-2.3228-1.2009-4.1493l-1.2009-3.321h-47.663-47.663l-0.63593-4.6396c-0.34-2.5-0.63-18.69-0.63-35.94 0-36.039 1.2642-32.582-10.902-29.815l-6.7965 1.5458-0.59716 16.704c-0.86529 24.205-3.9646 39.321-9.1185 44.475-2.329 2.3289-9.9752 2.26-30.146-0.2718-23.402-2.9372-34.533-3.4342-46.287-2.0666-16.419 1.9105-16.146 2.4092 2.9881 5.4642 50.799 8.1105 80.86 17.028 80.86 23.986 0 0.6756-1.1191 8.4034-2.4868 17.173-3.275 20.998-5.4916 41.214-5.5035 50.195l-0.01 7.25h8.481c7.9769 0 8.5113-0.1337 8.9922-2.25zm110.75-32.153 0.27542-34.403-17-0.6605c-9.35-0.3632-29.375-0.5192-44.5-0.3466l-27.5 0.3138-2.1618 6.5c-2.84 8.6-4.34 24.4-4.34 45.8v17.326h47.475 47.475l0.27542-34.403zm3.3196-81.347c0.34914-2.0625 1.4945-6.9287 2.5453-10.814 1.55-5.65 1.91-10.38 1.91-25.22v-18.254l-29.25 0.35189c-32.437 0.39022-29.18-0.14721-54.5 8.9942l-8.25 2.9786v19.297c0 19.182 0.0134 19.3 2.25 19.847 8.5693 2.0932 56.112 6.2879 73.955 6.525l10.705 0.1422 0.63481-3.75zm-206.28-2.3936c1.1753-0.62898 3.5613-2.654 5.3023-4.5 3.8389-4.0704 1.004-4.0791 34.887 0.10694 15.377 1.8997 28.192 3.2198 28.478 2.9336 0.2862-0.2862 0.81346-3.7551 1.1717-7.7087s1.2434-13.204 1.967-20.557l1.3156-13.369-4.6504-4.3938-4.6504-4.3938-36.263 0.26252-36.263 0.26252-3.032 5.9246c-4.4938 8.7808-5.2497 35.381-1.1441 40.26 4.243 5.0425 9.316 7.0795 12.88 5.1719z"/>
</svg>
