<svg xmlns="http://www.w3.org/2000/svg"  viewBox="0 0 24 24" width="24px" height="24px"><path d="M18,3H6C4.343,3,3,4.343,3,6v12c0,1.657,1.343,3,3,3h12c1.657,0,3-1.343,3-3V6C21,4.343,19.657,3,18,3z M18.077,7.455	L17.33,8.357c-0.047,0.047-0.074,0.11-0.074,0.175v6.821c0,0.066,0.027,0.129,0.074,0.175l0.747,0.972v0.186h-4.513V16.5	l1.157-0.972c0.047-0.047,0.074-0.11,0.074-0.175V9.252l-2.932,7.427l-0.002,0.008h-0.633L7.82,9.455v5.378	c0,0.09,0.031,0.178,0.088,0.248L9.051,16.5v0.186H5.769V16.5l1.142-1.411c0.057-0.071,0.089-0.159,0.089-0.249v-6.2	c0-0.058-0.021-0.115-0.058-0.159L6.179,7.455V7.25h3.322l2.83,6.008l2.371-6.008h3.374V7.455z"/><path d="M6.179,7.25v0.205l0.762,1.026C6.979,8.525,6.999,8.582,6.999,8.64v6.2	c0,0.091-0.032,0.179-0.089,0.249l-1.142,1.411v0.186h3.282v-0.186l-1.143-1.419c-0.057-0.07-0.088-0.159-0.088-0.248V9.455	l3.407,7.231h0.633l0.002-0.008l2.932-7.427v6.101c0,0.066-0.027,0.129-0.074,0.175l-1.157,0.972v0.186h4.513v-0.186l-0.747-0.972	c-0.047-0.047-0.074-0.11-0.074-0.175V8.532c0-0.066,0.027-0.129,0.074-0.175l0.747-0.902V7.25h-3.374l-2.371,6.008L9.501,7.25	H6.179z" opacity=".35"/></svg>